<svg width="23" height="23" viewBox="0 0 23 23" fill="none" xmlns="http://www.w3.org/2000/svg">
<path d="M7.30952 21.8899H2.5C1.94772 21.8899 1.5 21.4422 1.5 20.8899V12.0831C1.5 11.8284 1.59721 11.5832 1.7718 11.3977L10.8988 1.70032C11.2936 1.2808 11.9603 1.2808 12.3552 1.70032L21.3076 11.2122C21.4822 11.3977 21.5794 11.6429 21.5794 11.8976V20.8899C21.5794 21.4422 21.1317 21.8899 20.5794 21.8899H15.5952C15.043 21.8899 14.5952 21.4422 14.5952 20.8899V15.9534C14.5952 15.9534 14.5952 13.1707 11.627 13.1707C8.13492 13.1707 8.30952 15.9534 8.30952 15.9534V20.8899C8.30952 21.4422 7.86181 21.8899 7.30952 21.8899Z" stroke="black" stroke-width="2"/>
</svg>
