<svg width="21" height="22" viewBox="0 0 21 22" fill="none" xmlns="http://www.w3.org/2000/svg">
<path d="M6.70821 21.2713H1.89868C1.3464 21.2713 0.898682 20.8236 0.898682 20.2713V11.4645C0.898682 11.2097 0.995895 10.9646 1.17048 10.7791L10.2975 1.0817C10.6923 0.662182 11.359 0.662182 11.7539 1.0817L20.7062 10.5936C20.8808 10.7791 20.978 11.0242 20.978 11.279V20.2713C20.978 20.8236 20.5303 21.2713 19.978 21.2713H14.9939C14.4416 21.2713 13.9939 20.8236 13.9939 20.2713V15.3348C13.9939 15.3348 13.9939 12.552 11.0257 12.552C7.5336 12.552 7.70821 15.3348 7.70821 15.3348V20.2713C7.70821 20.8236 7.26049 21.2713 6.70821 21.2713Z" fill="black"/>
</svg>
